<svg width="92" height="16" viewBox="0 0 92 16" fill="none" xmlns="http://www.w3.org/2000/svg">
<path d="M90 0H27C25.8954 0 25 0.89543 25 2V14C25 15.1046 25.8954 16 27 16H90C91.1046 16 92 15.1046 92 14V2C92 0.89543 91.1046 0 90 0Z" fill="#85C4D1"/>
<path d="M7.4707 7.58789V10.9102C7.3457 11.0703 7.14844 11.2441 6.87891 11.4316C6.61328 11.6191 6.26562 11.7812 5.83594 11.918C5.40625 12.0508 4.87891 12.1172 4.25391 12.1172C3.71094 12.1172 3.21484 12.0273 2.76562 11.8477C2.31641 11.6641 1.92969 11.3965 1.60547 11.0449C1.28125 10.6934 1.03125 10.2637 0.855469 9.75586C0.679688 9.24805 0.591797 8.66797 0.591797 8.01562V7.45312C0.591797 6.80078 0.673828 6.2207 0.837891 5.71289C1.00586 5.20508 1.24414 4.77539 1.55273 4.42383C1.86523 4.07227 2.23828 3.80469 2.67188 3.62109C3.10938 3.4375 3.59766 3.3457 4.13672 3.3457C4.85938 3.3457 5.45312 3.46484 5.91797 3.70312C6.38672 3.94141 6.74609 4.26953 6.99609 4.6875C7.24609 5.10156 7.40234 5.57812 7.46484 6.11719H5.89453C5.85156 5.82031 5.76562 5.56055 5.63672 5.33789C5.50781 5.11133 5.32422 4.93555 5.08594 4.81055C4.85156 4.68164 4.54688 4.61719 4.17188 4.61719C3.85547 4.61719 3.57617 4.67969 3.33398 4.80469C3.0918 4.92969 2.88867 5.11133 2.72461 5.34961C2.56055 5.58789 2.43555 5.88281 2.34961 6.23438C2.26758 6.58594 2.22656 6.98828 2.22656 7.44141V8.01562C2.22656 8.47266 2.27344 8.87891 2.36719 9.23438C2.46094 9.58594 2.5957 9.88281 2.77148 10.125C2.95117 10.3633 3.17188 10.5449 3.43359 10.6699C3.69922 10.791 4 10.8516 4.33594 10.8516C4.64062 10.8516 4.89258 10.8262 5.0918 10.7754C5.29492 10.7207 5.45703 10.6562 5.57812 10.582C5.69922 10.5078 5.79297 10.4355 5.85938 10.3652V8.76562H4.16602V7.58789H7.4707ZM14.6543 6.99023V8.25586H10.166V6.99023H14.6543ZM10.6055 3.46875V12H8.99414V3.46875H10.6055ZM15.8496 3.46875V12H14.2383V3.46875H15.8496ZM23.4434 7.73438V8.95898H20.2383V7.73438H23.4434ZM33.5332 6.99023V8.25586H29.0449V6.99023H33.5332ZM29.4844 3.46875V12H27.873V3.46875H29.4844ZM34.7285 3.46875V12H33.1172V3.46875H34.7285ZM43.2773 7.51758V7.95703C43.2773 8.60156 43.1914 9.18164 43.0195 9.69727C42.8477 10.209 42.6035 10.6445 42.2871 11.0039C41.9707 11.3633 41.5938 11.6387 41.1562 11.8301C40.7188 12.0215 40.2324 12.1172 39.6973 12.1172C39.1699 12.1172 38.6855 12.0215 38.2441 11.8301C37.8066 11.6387 37.4277 11.3633 37.1074 11.0039C36.7871 10.6445 36.5391 10.209 36.3633 9.69727C36.1875 9.18164 36.0996 8.60156 36.0996 7.95703V7.51758C36.0996 6.86914 36.1875 6.28906 36.3633 5.77734C36.5391 5.26562 36.7852 4.83008 37.1016 4.4707C37.418 4.10742 37.7949 3.83008 38.2324 3.63867C38.6738 3.44727 39.1582 3.35156 39.6855 3.35156C40.2207 3.35156 40.707 3.44727 41.1445 3.63867C41.582 3.83008 41.959 4.10742 42.2754 4.4707C42.5957 4.83008 42.8418 5.26562 43.0137 5.77734C43.1895 6.28906 43.2773 6.86914 43.2773 7.51758ZM41.6484 7.95703V7.50586C41.6484 7.04102 41.6055 6.63281 41.5195 6.28125C41.4336 5.92578 41.3066 5.62695 41.1387 5.38477C40.9707 5.14258 40.7637 4.96094 40.5176 4.83984C40.2715 4.71484 39.9941 4.65234 39.6855 4.65234C39.373 4.65234 39.0957 4.71484 38.8535 4.83984C38.6152 4.96094 38.4121 5.14258 38.2441 5.38477C38.0762 5.62695 37.9473 5.92578 37.8574 6.28125C37.7715 6.63281 37.7285 7.04102 37.7285 7.50586V7.95703C37.7285 8.41797 37.7715 8.82617 37.8574 9.18164C37.9473 9.53711 38.0762 9.83789 38.2441 10.084C38.416 10.3262 38.623 10.5098 38.8652 10.6348C39.1074 10.7598 39.3848 10.8223 39.6973 10.8223C40.0098 10.8223 40.2871 10.7598 40.5293 10.6348C40.7715 10.5098 40.9746 10.3262 41.1387 10.084C41.3066 9.83789 41.4336 9.53711 41.5195 9.18164C41.6055 8.82617 41.6484 8.41797 41.6484 7.95703ZM45.3457 3.46875H46.7402L49.0723 9.89062L51.3984 3.46875H52.7988L49.6289 12H48.5098L45.3457 3.46875ZM44.6426 3.46875H46.0078L46.2539 9.36914V12H44.6426V3.46875ZM52.1309 3.46875H53.502V12H51.8906V9.36914L52.1309 3.46875ZM60.7969 10.7344V12H56.2617V10.7344H60.7969ZM56.7539 3.46875V12H55.1426V3.46875H56.7539ZM60.2051 6.99023V8.22656H56.2617V6.99023H60.2051ZM60.7793 3.46875V4.74023H56.2617V3.46875H60.7793ZM65.1973 8.88867H63V7.62305H65.1973C65.5566 7.62305 65.8477 7.56445 66.0703 7.44727C66.2969 7.32617 66.4629 7.16211 66.5684 6.95508C66.6738 6.74414 66.7266 6.50391 66.7266 6.23438C66.7266 5.97266 66.6738 5.72852 66.5684 5.50195C66.4629 5.27539 66.2969 5.0918 66.0703 4.95117C65.8477 4.81055 65.5566 4.74023 65.1973 4.74023H63.5273V12H61.916V3.46875H65.1973C65.8613 3.46875 66.4277 3.58789 66.8965 3.82617C67.3691 4.06055 67.7285 4.38672 67.9746 4.80469C68.2246 5.21875 68.3496 5.69141 68.3496 6.22266C68.3496 6.77344 68.2246 7.24805 67.9746 7.64648C67.7285 8.04492 67.3691 8.35156 66.8965 8.56641C66.4277 8.78125 65.8613 8.88867 65.1973 8.88867ZM72.082 4.76367L69.6504 12H67.9453L71.1328 3.46875H72.2227L72.082 4.76367ZM74.1152 12L71.6719 4.76367L71.5254 3.46875H72.6211L75.8262 12H74.1152ZM74.0039 8.83008V10.1016H69.4277V8.83008H74.0039ZM83.2559 7.58789V10.9102C83.1309 11.0703 82.9336 11.2441 82.6641 11.4316C82.3984 11.6191 82.0508 11.7812 81.6211 11.918C81.1914 12.0508 80.6641 12.1172 80.0391 12.1172C79.4961 12.1172 79 12.0273 78.5508 11.8477C78.1016 11.6641 77.7148 11.3965 77.3906 11.0449C77.0664 10.6934 76.8164 10.2637 76.6406 9.75586C76.4648 9.24805 76.377 8.66797 76.377 8.01562V7.45312C76.377 6.80078 76.459 6.2207 76.623 5.71289C76.791 5.20508 77.0293 4.77539 77.3379 4.42383C77.6504 4.07227 78.0234 3.80469 78.457 3.62109C78.8945 3.4375 79.3828 3.3457 79.9219 3.3457C80.6445 3.3457 81.2383 3.46484 81.7031 3.70312C82.1719 3.94141 82.5312 4.26953 82.7812 4.6875C83.0312 5.10156 83.1875 5.57812 83.25 6.11719H81.6797C81.6367 5.82031 81.5508 5.56055 81.4219 5.33789C81.293 5.11133 81.1094 4.93555 80.8711 4.81055C80.6367 4.68164 80.332 4.61719 79.957 4.61719C79.6406 4.61719 79.3613 4.67969 79.1191 4.80469C78.877 4.92969 78.6738 5.11133 78.5098 5.34961C78.3457 5.58789 78.2207 5.88281 78.1348 6.23438C78.0527 6.58594 78.0117 6.98828 78.0117 7.44141V8.01562C78.0117 8.47266 78.0586 8.87891 78.1523 9.23438C78.2461 9.58594 78.3809 9.88281 78.5566 10.125C78.7363 10.3633 78.957 10.5449 79.2188 10.6699C79.4844 10.791 79.7852 10.8516 80.1211 10.8516C80.4258 10.8516 80.6777 10.8262 80.877 10.7754C81.0801 10.7207 81.2422 10.6562 81.3633 10.582C81.4844 10.5078 81.5781 10.4355 81.6445 10.3652V8.76562H79.9512V7.58789H83.2559ZM90.4336 10.7344V12H85.8984V10.7344H90.4336ZM86.3906 3.46875V12H84.7793V3.46875H86.3906ZM89.8418 6.99023V8.22656H85.8984V6.99023H89.8418ZM90.416 3.46875V4.74023H85.8984V3.46875H90.416Z" fill="white"/>
</svg>
